# Blender v3.3.0 OBJ File: ''
# www.blender.org
mtllib circle.mtl
o Circle
v 0.000000 0.000000 -1.000000
v -0.500000 0.000000 -0.866025
v -0.866025 0.000000 -0.500000
v -1.000000 0.000000 0.000000
v -0.866025 0.000000 0.500000
v -0.500000 0.000000 0.866025
v 0.000000 0.000000 1.000000
v 0.500000 0.000000 0.866025
v 0.866025 0.000000 0.500000
v 1.000000 0.000000 0.000000
v 0.866025 0.000000 -0.500000
v 0.500000 0.000000 -0.866025
v -0.000000 -0.052400 -0.830352
v -0.413277 -0.052400 -0.719615
v -0.715817 -0.052400 -0.417075
v -0.826554 -0.052400 -0.003798
v -0.715817 -0.052400 0.409479
v -0.413277 -0.052400 0.712019
v -0.000000 -0.052400 0.822756
v 0.413277 -0.052400 0.712019
v 0.715817 -0.052400 0.409479
v 0.826554 -0.052400 -0.003798
v 0.715817 -0.052400 -0.417075
v 0.413277 -0.052400 -0.719615
vt 0.000000 0.000000
vt 0.000000 0.000000
vt 0.000000 0.000000
vt 0.000000 0.000000
vt 0.000000 0.000000
vt 0.000000 0.000000
vt 0.000000 0.000000
vt 0.000000 0.000000
vt 0.000000 0.000000
vt 0.000000 0.000000
vt 0.000000 0.000000
vt 0.000000 0.000000
vt 0.000000 0.000000
vt 0.000000 0.000000
vt 0.000000 0.000000
vt 0.000000 0.000000
vt 0.000000 0.000000
vt 0.000000 0.000000
vt 0.000000 0.000000
vt 0.000000 0.000000
vt 0.000000 0.000000
vt 0.000000 0.000000
vt 0.000000 0.000000
vt 0.000000 0.000000
vn -0.2142 -0.9530 -0.2142
vn 0.2868 -0.9549 0.0768
vn -0.0757 -0.9562 0.2827
vn -0.2899 -0.9539 -0.0777
vn 0.2899 -0.9539 -0.0777
vn 0.0757 -0.9562 0.2827
vn -0.2868 -0.9549 0.0768
vn 0.2142 -0.9530 -0.2142
vn -0.0788 -0.9525 -0.2942
vn 0.2080 -0.9557 0.2080
vn -0.2080 -0.9557 0.2080
vn 0.0788 -0.9525 -0.2942
usemtl None
s off
f 3/1/1 2/2/1 14/3/1 15/4/1
f 10/5/2 9/6/2 21/7/2 22/8/2
f 7/9/3 6/10/3 18/11/3 19/12/3
f 4/13/4 3/1/4 15/4/4 16/14/4
f 11/15/5 10/5/5 22/8/5 23/16/5
f 8/17/6 7/9/6 19/12/6 20/18/6
f 5/19/7 4/13/7 16/14/7 17/20/7
f 12/21/8 11/15/8 23/16/8 24/22/8
f 2/2/9 1/23/9 13/24/9 14/3/9
f 9/6/10 8/17/10 20/18/10 21/7/10
f 6/10/11 5/19/11 17/20/11 18/11/11
f 1/23/12 12/21/12 24/22/12 13/24/12
